# xmcd
#
# Track frame offsets: 
#        150
#        15105
#        29970
#        44040
#        59910
#        73710
#        88718
#        104671
#        121966
#        138376
#        151734
#        165092
#        181750
#        191845
#
# Disc length: 2740 seconds
#
# Revision: 0
# Processed by: cddbd v1.5.2PL0 Copyright (c) Steve Scherf et al.
# Submitted via: ExactAudioCopy v1.0b4
#
DISCID=c20ab20e
DTITLE=Andy Lindquist - Mississippi Mud
DYEAR=2016
DGENRE=Texas Blues, Delta Blues,
TTITLE0=Blues Be Gone
TTITLE1=My Baby by the Candle Light
TTITLE2=That Road to Whiskey
TTITLE3=Ain't Got Time to Cry
TTITLE4=Second Hand Jezebel
TTITLE5=The River's in the Music
TTITLE6=Angel Call
TTITLE7=Cuz I'm Lost
TTITLE8=Mississippi Mud
TTITLE9=Roll Me Snake Eyes
TTITLE10=Them Blues Is Coming On
TTITLE11=Everyday Lately
TTITLE12=Mercy on Mercy
TTITLE13=Them Blues Is Coming On (Bonus 
EXTD=
EXTT0=
EXTT1=
EXTT2=
EXTT3=
EXTT4=
EXTT5=
EXTT6=
EXTT7=
EXTT8=
EXTT9=
EXTT10=
EXTT11=
EXTT12=
EXTT13=
PLAYORDER=
